<svg width="37" height="26" fill="none" xmlns="http://www.w3.org/2000/svg"><path fill-rule="evenodd" clip-rule="evenodd" d="M23.004 19.13h13.134c.438 0 .794.397.794.886v5.38c0 .334-.242.604-.541.604-.3 0-.541-.27-.541-.604v-1.963h-5.81c-.299 0-.54-.27-.54-.604 0-.334.241-.605.54-.605h5.809v-1.886H23.004v1.886h4.835c.299 0 .54.271.54.605 0 .334-.241.604-.54.604h-4.835v1.107c0 .609-.444 1.104-.991 1.104h-10.51C5.16 25.644 0 19.892 0 12.822 0 5.752 5.16 0 11.502 0 16.57 0 20.88 3.67 22.41 8.751h1.956c.47 0 .853.385.952.957l.74 4.297c.064.362 0 .697-.182.942a.9.9 0 01-.745.365h-2.127v3.818zm1.97-5.027L24.26 9.96h-1.545c.19.92.29 1.879.29 2.862v1.281h1.969zm-23.878-.676H3.18c.146 0 .345-.015.51-.202.18-.204.175-.446.172-.575 0-.043-.002-.086 0-.143a9.144 9.144 0 011.336-4.506.65.65 0 00-.138-.84c-.246-.19-.583-.12-.753.154a10.424 10.424 0 00-1.515 4.903H1.096c.274-5.924 4.55-10.69 9.865-10.994v1.89c-1.704.115-3.321.777-4.69 1.921a.652.652 0 00-.11.846.502.502 0 00.757.122c1.25-1.044 2.737-1.63 4.3-1.693.051-.002.092-.001.124 0h.005c.118.002.334.006.515-.193.185-.204.183-.446.181-.622v-2.27c5.495.314 9.88 5.396 9.88 11.597v8.514H11.916c-.527 0-.956.479-.956 1.067v2.017c-5.315-.305-9.591-5.07-9.865-10.994zm10.947 11.009h9.88v-1.891h-9.88v1.89z" fill="#000"/><path fill-rule="evenodd" clip-rule="evenodd" d="M16.715 19.933h-5.173c-3.395 0-6.156-2.916-6.156-6.5s2.761-6.5 6.156-6.5c3.394 0 6.154 2.916 6.154 6.5v5.46c0 .574-.44 1.04-.981 1.04zm-.113-6.5c0-2.946-2.27-5.342-5.06-5.342-2.791 0-5.062 2.396-5.062 5.341 0 2.947 2.27 5.344 5.062 5.344h5.06v-5.344z" fill="#000"/><path fill-rule="evenodd" clip-rule="evenodd" d="M13.508 15.6H9.574a1.102 1.102 0 01-1.11-1.09v-2.156a1.1 1.1 0 011.11-1.087h3.934a1.1 1.1 0 011.11 1.087v2.156c0 .601-.498 1.09-1.11 1.09zm-.125-3.123H9.699v1.912h3.684v-1.912z" fill="#000"/></svg>