<svg width="37" height="26" viewBox="0 0 37 26" fill="none" xmlns="http://www.w3.org/2000/svg">
<path fill-rule="evenodd" clip-rule="evenodd" d="M23.0044 19.1299H36.1383C36.5758 19.1299 36.9317 19.5272 36.9317 20.0156V22.1081V22.8288V25.3956C36.9317 25.7295 36.6896 26 36.3907 26C36.0919 26 35.8497 25.7295 35.8497 25.3956V23.4332H30.0414C29.7425 23.4332 29.5004 23.1627 29.5004 22.8288C29.5004 22.495 29.7425 22.2245 30.0414 22.2245H35.8497V22.1081V20.3387H23.0044V22.2245H27.8387C28.1376 22.2245 28.3797 22.495 28.3797 22.8288C28.3797 23.1627 28.1376 23.4332 27.8387 23.4332H23.0044V24.54C23.0044 25.1489 22.5597 25.6442 22.0129 25.6442H11.5022C5.15991 25.6442 0 19.8922 0 12.8221C0 5.75199 5.15991 0 11.5022 0C16.5686 0 20.8801 3.67052 22.4098 8.75128H24.3656C24.8364 8.75128 25.2192 9.13581 25.3182 9.70825L26.0587 14.0052C26.1218 14.367 26.0572 14.702 25.8764 14.9471C25.7028 15.1824 25.4382 15.312 25.1312 15.312H23.0044V19.1299ZM24.9739 14.1033L24.2597 9.9599H22.7152C22.9042 10.8805 23.0044 11.8386 23.0044 12.8221V14.1033H24.9739ZM1.09598 13.4265H3.06692L3.13775 13.427C3.1511 13.4271 3.16509 13.4273 3.17966 13.4273C3.32566 13.4273 3.52547 13.4122 3.69086 13.2245C3.87033 13.0209 3.86499 12.7793 3.86203 12.6495C3.8611 12.6075 3.86016 12.5641 3.86203 12.507C3.91491 10.8882 4.3767 9.33025 5.19756 8.00148C5.36729 7.72678 5.30547 7.35039 5.05957 7.16078C4.81375 6.97117 4.47667 7.04023 4.30702 7.31493C3.41041 8.76643 2.88861 10.4569 2.79152 12.2177H1.09598C1.36979 6.29357 5.6455 1.52861 10.9612 1.22418V3.11355C9.25731 3.22918 7.63975 3.89099 6.27017 5.03539C6.03091 5.23523 5.982 5.61404 6.16096 5.88132C6.26721 6.04007 6.42987 6.12371 6.59462 6.12371C6.70736 6.12371 6.82104 6.08455 6.91821 6.00332C8.16855 4.9586 9.65512 4.37302 11.2178 4.30976C11.2692 4.30765 11.3098 4.30866 11.3419 4.30945L11.3446 4.30952L11.3472 4.30957C11.4651 4.31193 11.6811 4.31626 11.8619 4.11669C12.0466 3.91326 12.0448 3.67147 12.0435 3.49485V3.49477L12.0432 1.22418C17.5385 1.53901 21.9224 6.62065 21.9224 12.822V19.7341V21.3362H11.9173C11.39 21.3362 10.9612 21.8149 10.9612 22.4032V24.4199C5.64558 24.1155 1.36986 19.3506 1.09598 13.4265ZM12.0432 24.4355H21.9224V22.8288V22.545H12.0432V24.4355Z" fill="black"/>
<path fill-rule="evenodd" clip-rule="evenodd" d="M16.715 19.9333H11.5421C8.14749 19.9333 5.38574 17.0169 5.38574 13.4322C5.38574 9.84872 8.14749 6.93333 11.5421 6.93333C14.9356 6.93333 17.6963 9.8488 17.6963 13.4322V18.8937C17.6963 19.4669 17.2561 19.9333 16.715 19.9333ZM16.6024 13.4322C16.6024 10.487 14.3324 8.09082 11.5421 8.09082C8.75066 8.09082 6.47962 10.487 6.47962 13.4322C6.47962 16.3787 8.75066 18.7759 11.5421 18.7759H16.6024V13.4322Z" fill="black"/>
<path fill-rule="evenodd" clip-rule="evenodd" d="M13.5076 15.6H9.57442C8.96181 15.6 8.46338 15.1112 8.46338 14.5103V12.354C8.46338 11.7545 8.96181 11.2667 9.57442 11.2667H13.5076C14.1202 11.2667 14.6187 11.7545 14.6187 12.354V14.5103C14.6187 15.1112 14.1202 15.6 13.5076 15.6ZM13.3829 12.4773H9.69915V14.3894H13.3829V12.4773Z" fill="black"/>
</svg>
